# xmcd
#
# Track frame offsets:
# 150
# 10822
# 26053
# 34520
# 49550
# 65905
# 83404
# 100824
# 123597
# 142104
# 156190
# 170270
# 183636
# 205728
#
# Disc length: 3017 seconds
#
#
# Revision: 0
# Processed by: cddbd v1.5.1PL2 Copyright (c) Steve Scherf et al.
# Submitted via: FreeRIP 2.945 
#
DISCID=b80bc70e
DTITLE=Mike Brosnan - Streets of glass
DYEAR=1998
DGENRE=roots/ americana
TTITLE0=Streets of glass INTRO
TTITLE1=Streets of glass
TTITLE2=Long gone
TTITLE3=Handyman
TTITLE4=Night train
TTITLE5=Tuatapere
TTITLE6=Willin'
TTITLE7=Duagh memories
TTITLE8=Why don't you try me?
TTITLE9=Statesboro blues
TTITLE10=Good liquor, bad company
TTITLE11=Georgia bound
TTITLE12=Last call
TTITLE13=She's funny that way
EXTD=
EXTT0=
EXTT1=
EXTT2=
EXTT3=
EXTT4=
EXTT5=
EXTT6=
EXTT7=
EXTT8=
EXTT9=
EXTT10=
EXTT11=
EXTT12=
EXTT13=
PLAYORDER=
